<?xml version="1.0" standalone="no"?>
<!DOCTYPE svg PUBLIC "-//W3C//DTD SVG 20010904//EN"
 "http://www.w3.org/TR/2001/REC-SVG-20010904/DTD/svg10.dtd">
<svg version="1.0" xmlns="http://www.w3.org/2000/svg"
 width="119.000000pt" height="127.000000pt" viewBox="0 0 119.000000 127.000000"
 preserveAspectRatio="xMidYMid meet">
<metadata>
Created by potrace 1.10, written by Peter Selinger 2001-2011
</metadata>
<g transform="translate(0.000000,127.000000) scale(0.100000,-0.100000)"
fill="#000000" stroke="none">
<path d="M375 1209 c-76 -10 -252 -51 -299 -68 l-28 -11 5 -248 c4 -258 9
-286 60 -405 l20 -48 14 38 c28 77 31 92 26 155 -5 56 -2 71 22 118 39 78 87
141 102 136 9 -4 11 10 6 59 -6 63 -5 65 30 100 19 19 39 35 45 35 5 0 26 -18
46 -40 36 -40 37 -40 108 -40 69 0 170 -17 212 -35 13 -6 17 -5 12 3 -9 15 68
54 97 50 16 -2 26 -15 36 -44 13 -36 12 -44 -2 -73 -16 -31 -15 -34 5 -61 11
-16 18 -36 15 -44 -10 -25 -24 -19 -30 14 -5 20 -14 31 -31 36 -29 7 -66 -11
-66 -32 0 -27 33 -74 52 -74 14 0 13 5 -9 26 -29 29 -21 48 18 42 17 -2 25
-11 27 -28 2 -13 11 -30 20 -36 14 -10 17 -33 18 -121 2 -111 -6 -142 -42
-174 -24 -21 -59 -10 -69 21 l-7 22 -23 -22 c-24 -23 -79 -39 -131 -40 l-31 0
9 47 c14 72 13 96 -8 139 l-19 39 -98 15 c-53 9 -104 22 -112 30 -8 8 -20 32
-28 53 -21 62 -32 48 -35 -47 -2 -50 -8 -96 -13 -103 -6 -6 -7 -18 -3 -24 4
-7 3 -9 -4 -5 -21 13 -52 -44 -52 -95 0 -27 4 -49 10 -49 5 0 7 15 5 34 -4 31
-2 34 15 31 12 -2 18 0 15 6 -4 5 -10 7 -15 4 -5 -3 -11 -1 -15 5 -3 5 -2 10
4 10 5 0 13 9 16 20 4 11 10 18 13 16 4 -2 17 13 29 35 12 22 16 36 10 32 -7
-3 -4 3 6 14 11 13 14 23 8 27 -5 4 -9 14 -9 24 0 9 -1 22 -3 27 -2 6 1 11 6
12 6 1 9 -5 7 -13 -2 -8 4 -17 12 -20 9 -3 14 -10 11 -14 -3 -5 -1 -11 3 -14
5 -3 8 -17 7 -31 -2 -14 0 -23 4 -20 9 5 8 36 -3 53 -9 15 6 16 22 0 6 -6 32
-11 57 -11 25 0 45 -4 45 -9 0 -5 17 -6 38 -3 29 5 33 4 20 -5 -10 -6 -18 -16
-18 -23 0 -9 3 -8 9 1 9 14 32 13 43 -3 12 -16 9 -27 -4 -18 -7 4 -5 -6 6 -21
11 -18 13 -26 5 -21 -11 6 -12 5 -1 -6 17 -18 15 -29 -5 -29 -12 0 -14 -3 -6
-8 13 -8 15 -72 2 -72 -17 0 -49 60 -49 93 0 20 -4 39 -10 42 -5 3 -10 -3 -10
-14 0 -30 -11 -51 -26 -51 -7 0 -38 9 -68 20 -42 16 -57 27 -67 53 l-13 32 -8
-44 c-4 -24 -22 -66 -39 -93 -33 -52 -48 -123 -35 -174 11 -42 100 -128 212
-204 56 -39 109 -73 117 -76 8 -3 42 12 76 33 l61 38 0 57 c0 57 0 58 -20 41
-22 -19 -27 -28 -9 -17 7 4 10 1 7 -7 -3 -8 -2 -23 3 -35 5 -15 2 -26 -12 -38
-11 -9 -24 -14 -30 -11 -5 4 -8 1 -7 -7 2 -8 -6 -12 -22 -11 -14 1 -19 -1 -12
-4 10 -4 10 -8 1 -19 -31 -37 -40 11 -14 74 15 34 100 132 116 132 4 0 9 -14
13 -32 7 -34 32 -68 51 -68 22 0 154 120 209 191 65 83 109 169 132 259 14 51
17 115 18 305 l1 239 -60 19 c-141 44 -245 58 -450 62 -110 2 -231 -1 -270 -6z
m212 -8 c13 5 28 7 31 5 4 -2 54 -7 112 -10 58 -4 112 -9 120 -11 8 -2 33 -6
55 -10 22 -3 46 -13 54 -23 13 -16 13 -16 8 1 -4 9 -2 17 3 17 6 0 10 -5 10
-10 0 -6 6 -10 13 -9 6 1 26 1 42 0 29 -2 29 -2 11 -16 -23 -17 -14 -20 15 -5
23 13 48 2 28 -11 -9 -6 -4 -8 15 -5 l29 5 -6 -164 c-4 -90 -3 -166 1 -169 5
-3 7 -24 6 -48 -2 -24 -4 -59 -5 -78 -1 -38 -11 -70 -41 -139 -11 -24 -21 -53
-24 -65 -2 -11 -13 -29 -25 -38 -11 -10 -18 -22 -15 -27 4 -5 1 -13 -5 -17 -8
-5 -10 -2 -5 7 4 8 1 6 -6 -5 -7 -10 -23 -31 -35 -46 -12 -15 -19 -31 -15 -35
4 -5 1 -5 -5 -1 -7 4 -21 2 -30 -4 -17 -11 -17 -11 1 -6 16 6 17 4 6 -9 -7 -8
-15 -13 -19 -11 -4 3 -13 0 -21 -6 -12 -8 -12 -9 3 -4 9 3 17 1 17 -4 0 -6 -4
-10 -9 -10 -4 0 -20 -12 -34 -26 -25 -24 -26 -25 -22 -5 2 12 0 19 -6 16 -5
-4 -7 -10 -4 -15 8 -12 -33 -52 -48 -47 -7 2 -13 9 -13 15 -1 7 -2 14 -3 17 0
3 -2 8 -2 13 -1 4 -7 16 -15 26 -9 14 -10 25 -3 40 9 19 8 19 -7 -2 -9 -12
-21 -22 -26 -22 -13 0 -112 -103 -116 -121 -2 -8 -7 -16 -12 -19 -4 -3 -7 -20
-5 -38 2 -31 1 -32 -14 -17 -10 8 -21 12 -26 8 -4 -5 -5 0 -2 9 4 11 2 15 -7
12 -7 -3 -18 5 -25 18 -9 18 -11 19 -6 3 5 -19 5 -20 -10 -1 -8 10 -12 23 -8
29 3 6 1 7 -6 3 -6 -4 -9 -12 -6 -17 3 -5 -1 -6 -10 -3 -12 5 -13 9 -4 20 10
12 9 13 -5 8 -17 -7 -69 32 -61 45 2 4 -1 13 -7 21 -8 12 -9 12 -4 -2 9 -28
-6 -21 -50 22 -40 39 -54 72 -54 130 0 47 9 63 29 48 10 -8 8 -3 -4 11 -17 21
-17 23 -3 18 12 -4 15 -2 12 7 -3 7 2 20 10 29 8 8 18 27 22 42 6 25 8 26 19
12 7 -9 16 -13 20 -9 5 4 5 -1 2 -10 -3 -10 -2 -20 4 -23 5 -4 9 -3 8 2 -4 20
3 23 29 9 15 -7 41 -13 58 -13 23 1 38 -7 62 -34 17 -20 28 -39 25 -43 -4 -4
1 -4 12 0 15 6 17 4 12 -11 -7 -16 -5 -16 10 -4 15 12 16 12 11 -2 -4 -9 -1
-22 5 -28 15 -15 -6 -14 -22 1 -9 9 -12 9 -7 1 3 -6 0 -13 -6 -16 -7 -3 -4 -5
7 -5 24 -1 47 -6 60 -14 9 -5 35 -4 137 5 9 1 15 3 13 6 -3 2 4 10 15 18 11 8
20 20 20 27 0 7 11 19 25 26 13 7 23 18 22 24 -1 6 5 10 13 8 8 -2 12 0 8 4
-4 4 0 21 9 38 34 66 34 66 17 73 -12 4 -15 15 -10 47 6 43 14 81 23 106 11
29 11 37 -3 37 -11 0 -11 -3 -1 -16 10 -12 9 -14 -5 -8 -13 4 -16 2 -12 -11 3
-9 -1 -6 -9 7 -11 19 -12 31 -4 48 5 13 14 23 19 23 5 0 7 -4 3 -9 -3 -5 -1
-12 4 -15 5 -4 8 1 7 10 -1 8 -8 19 -15 24 -10 6 -9 10 5 19 16 10 16 11 2 9
-9 -2 -17 2 -17 7 -1 6 3 10 8 10 5 0 13 4 18 8 4 5 1 7 -7 5 -8 -2 -14 3 -12
10 1 8 -2 11 -8 7 -6 -3 -8 -11 -5 -16 4 -5 2 -9 -4 -9 -10 0 -7 71 4 107 2 6
-3 17 -11 24 -8 7 -13 17 -10 24 4 12 -4 14 -69 19 -29 1 -47 -4 -65 -19 -14
-12 -31 -20 -37 -19 -7 1 -18 2 -24 3 -5 0 -8 5 -5 9 4 7 -26 9 -171 12 -46 1
-66 6 -78 20 -9 10 -14 23 -10 29 3 6 0 8 -8 5 -8 -3 -18 0 -23 7 -4 7 -3 10
3 6 5 -3 10 0 10 8 0 11 -5 11 -19 4 -14 -8 -26 -6 -43 5 -29 19 -46 21 -22 4
15 -12 13 -17 -23 -55 -21 -24 -35 -43 -31 -43 15 0 2 -61 -17 -78 -9 -9 -13
-14 -8 -9 15 10 36 9 36 -4 0 -5 -4 -8 -9 -5 -5 3 -15 -2 -22 -11 -12 -14 -12
-16 1 -9 9 4 8 2 -2 -7 -10 -8 -14 -17 -10 -21 4 -5 -2 -6 -13 -4 -13 2 -19
-2 -17 -11 1 -7 -2 -19 -8 -26 -27 -33 -62 -114 -64 -150 -1 -23 -6 -47 -11
-55 -6 -9 -4 -12 6 -8 11 4 14 -3 11 -36 -5 -48 -21 -74 -33 -54 -4 7 -4 17 1
23 6 7 2 17 -10 28 -21 18 -28 43 -9 31 6 -3 4 4 -4 17 -18 28 -22 89 -19 335
l2 171 68 21 c77 24 119 35 147 37 11 1 54 7 95 13 41 6 92 10 113 9 21 -2 41
2 45 7 3 6 7 5 9 -1 3 -9 12 -9 30 -2z m236 -800 c5 -5 -1 -18 -14 -30 -18
-17 -35 -21 -84 -21 -68 0 -107 18 -83 37 32 27 158 37 181 14z"/>
<path d="M357 1109 c7 -7 15 -10 18 -7 3 3 -2 9 -12 12 -14 6 -15 5 -6 -5z"/>
<path d="M457 1097 c-3 -8 1 -14 8 -14 7 0 11 6 8 14 -3 7 -6 13 -8 13 -2 0
-5 -6 -8 -13z"/>
<path d="M450 1055 c-9 -10 -9 -15 -1 -15 6 0 11 5 11 11 0 5 5 7 12 3 7 -4 8
-3 4 4 -9 15 -11 15 -26 -3z"/>
<path d="M243 1015 c0 -8 4 -12 9 -9 5 3 6 10 3 15 -9 13 -12 11 -12 -6z"/>
<path d="M713 1005 c0 -7 6 -12 14 -11 19 3 21 19 2 21 -9 2 -16 -3 -16 -10z"/>
<path d="M249 988 c-8 -27 -5 -36 9 -30 10 4 12 7 4 10 -7 2 -10 8 -6 13 3 5
3 9 0 9 -3 0 -6 -1 -7 -2z"/>
<path d="M921 924 c0 -11 3 -14 6 -6 3 7 2 16 -1 19 -3 4 -6 -2 -5 -13z"/>
<path d="M180 843 c0 -5 5 -15 10 -23 7 -12 9 -10 7 8 -1 19 -17 33 -17 15z"/>
<path d="M939 638 c-5 -18 -6 -59 -2 -54 7 6 13 56 7 56 -2 0 -4 -1 -5 -2z"/>
<path d="M1043 449 c-2 -23 3 -25 10 -4 4 8 3 16 -1 19 -4 3 -9 -4 -9 -15z"/>
<path d="M914 428 l-19 -23 23 19 c12 11 22 21 22 23 0 8 -8 2 -26 -19z"/>
<path d="M931 411 c-10 -6 -9 -10 3 -14 8 -3 18 -2 21 3 8 13 -9 20 -24 11z"/>
<path d="M864 394 c-18 -14 -18 -15 4 -4 12 6 22 13 22 15 0 8 -5 6 -26 -11z"/>
<path d="M847 357 c-28 -24 -28 -41 1 -30 11 5 13 3 7 -7 -6 -9 -4 -11 4 -5 9
5 10 10 2 18 -8 8 -6 16 6 29 22 24 14 22 -20 -5z"/>
<path d="M595 320 c-3 -6 1 -7 9 -4 18 7 21 14 7 14 -6 0 -13 -4 -16 -10z"/>
<path d="M303 295 c0 -8 4 -12 9 -9 5 3 6 10 3 15 -9 13 -12 11 -12 -6z"/>
<path d="M796 188 c3 -5 10 -6 15 -3 13 9 11 12 -6 12 -8 0 -12 -4 -9 -9z"/>
<path d="M346 1009 c-19 -27 -20 -50 -5 -102 13 -49 29 -54 67 -21 l31 27 -26
46 c-41 72 -48 77 -67 50z m27 -26 c0 -4 11 -19 23 -32 25 -27 22 -51 -8 -51
-12 0 -17 -4 -12 -12 4 -7 3 -8 -5 -4 -6 4 -9 11 -6 16 3 5 2 11 -3 14 -6 4
-8 38 -3 80 1 11 12 2 14 -11z"/>
<path d="M366 931 c-4 -5 4 -7 16 -4 19 4 20 3 8 -7 -10 -8 -11 -10 -2 -8 8 2
13 8 13 13 0 14 -28 18 -35 6z"/>
<path d="M832 947 c-27 -29 -28 -39 -1 -56 27 -16 39 -2 39 47 0 38 -9 40 -38
9z"/>
<path d="M533 830 c-53 -32 -70 -80 -29 -80 14 0 28 -4 31 -10 3 -5 18 -10 33
-9 25 0 26 1 6 9 -32 13 -38 29 -18 51 21 23 51 25 75 3 14 -13 16 -21 8 -35
-7 -15 -6 -17 5 -13 9 3 18 15 22 27 7 22 7 22 15 -2 10 -24 3 -45 -11 -36 -4
3 2 -23 15 -57 13 -35 26 -75 29 -90 5 -21 12 -27 39 -30 28 -3 32 -7 32 -31
-1 -32 15 -30 32 4 7 13 22 26 34 29 33 8 34 28 3 40 -31 12 -101 4 -123 -14
-12 -9 -13 -6 -9 18 4 19 -1 40 -14 62 -17 29 -18 33 -4 28 9 -4 14 -9 11 -12
-3 -3 2 -13 11 -23 9 -10 14 -25 11 -34 -4 -8 -2 -15 3 -15 17 0 11 29 -21
106 -53 128 -108 162 -186 114z m17 -25 c-7 -8 -18 -15 -24 -15 -6 0 -2 7 8
15 25 19 32 19 16 0z m-23 -31 c-3 -3 -12 -4 -19 -1 -8 3 -5 6 6 6 11 1 17 -2
13 -5z m177 -50 c3 -8 2 -12 -4 -9 -6 3 -10 10 -10 16 0 14 7 11 14 -7z m141
-146 c3 -2 -1 -5 -7 -5 -7 0 -19 -2 -27 -4 -7 -2 -15 1 -18 8 -4 11 41 13 52
1z"/>
<path d="M871 673 c-20 -18 -20 -19 -2 -42 18 -23 18 -23 24 -2 3 11 1 19 -4
15 -12 -7 -11 3 1 27 13 24 8 24 -19 2z"/>
<path d="M500 605 c-7 -9 -11 -17 -9 -20 3 -2 10 5 17 15 14 24 10 26 -8 5z"/>
<path d="M296 525 c-11 -8 -15 -15 -9 -15 6 0 16 7 23 15 16 19 11 19 -14 0z"/>
<path d="M1077 319 c7 -7 15 -10 18 -7 3 3 -2 9 -12 12 -14 6 -15 5 -6 -5z"/>
<path d="M994 248 l-19 -23 23 19 c21 18 27 26 19 26 -2 0 -12 -10 -23 -22z"/>
<path d="M625 80 c-3 -6 1 -7 9 -4 18 7 21 14 7 14 -6 0 -13 -4 -16 -10z"/>
</g>
</svg>
